<svg xmlns="http://www.w3.org/2000/svg">
    <!-- Иконки измерителей -->
    <symbol id="icon-speedometer" viewBox="0 0 17 12">
      <path fill="#4EA0FF" d="M4.82 4.1a.2.2 0 00-.05-.15L3.12 2.08a.2.2 0 00-.3-.02A8.56 8.56 0 00.97 4.39a.2.2 0 00.09.28l2.18 1.2a.2.2 0 00.28-.09c.32-.58.74-1.1 1.24-1.54a.2.2 0 00.07-.14zM5.6 3.37a.2.2 0 00.27.09c.58-.31 1.2-.51 1.85-.6a.2.2 0 00.18-.23L7.57.18A.2.2 0 007.34 0C6.35.14 5.4.44 4.53.9a.2.2 0 00-.09.29L5.6 3.37zM2.93 6.8L.55 6.17a.2.2 0 00-.26.15 8.38 8.38 0 00-.28 2.6.2.2 0 00.21.2l2.47-.12a.2.2 0 00.2-.21 5.56 5.56 0 01.18-1.72.2.2 0 00-.14-.25zM12.2.81a8.5 8.5 0 00-2.9-.8.21.21 0 00-.23.19l-.24 2.5a.2.2 0 00.2.22 5.6 5.6 0 011.99.56.2.2 0 00.19-.12l1.08-2.27c.05-.1.01-.23-.1-.28zM15.79 4.33a.2.2 0 00-.02-.16 8.53 8.53 0 00-1.95-2.25.2.2 0 00-.3.03l-1.56 1.93a.2.2 0 00.03.29c.52.42.95.92 1.29 1.49a.2.2 0 00.28.07l2.14-1.28a.2.2 0 00.09-.12zM16.6 5.9a.21.21 0 00-.26-.13l-2.4.72a.2.2 0 00-.14.25 5.3 5.3 0 01.25 1.9c0 .06.02.11.06.15.03.04.09.06.14.07l2.52.1h.01a.2.2 0 00.21-.18 7.99 7.99 0 00-.39-2.88zM8.5 8.03h-.12L5.01 6.06a.21.21 0 00-.26.03.21.21 0 00-.04.26l1.84 3.43v.2a1.94 1.94 0 003.33 1.37 1.92 1.92 0 00-.01-2.74 1.94 1.94 0 00-1.38-.57z"/>
    </symbol>
    <symbol id="icon-accuracy-meter" viewBox="0 0 17 17">
        <path fill="#96C691" fill-rule="evenodd" d="M14.51 2.49A8.44 8.44 0 008.5 0C6.23 0 4.1.88 2.49 2.49A8.44 8.44 0 000 8.5c0 2.27.88 4.4 2.49 6.01A8.44 8.44 0 008.5 17c2.27 0 4.4-.88 6.01-2.49A8.44 8.44 0 0017 8.5c0-2.27-.88-4.4-2.49-6.01zM7.97 1.07V4.2A4.35 4.35 0 004.2 7.97H1.07a7.46 7.46 0 016.9-6.9zm0 4.19a3.3 3.3 0 00-2.71 2.71h2.71V5.26zm0 3.77v2.71a3.3 3.3 0 01-2.71-2.71h2.71zm-6.9 0a7.46 7.46 0 006.9 6.9V12.8A4.35 4.35 0 014.2 9.03H1.07zm7.96-7.96a7.46 7.46 0 016.9 6.9H12.8A4.35 4.35 0 009.03 4.2V1.07zm0 4.19v2.71h2.71a3.3 3.3 0 00-2.71-2.71zm2.71 3.77a3.3 3.3 0 01-2.71 2.71V9.03h2.71zM9.03 12.8v3.12a7.46 7.46 0 006.9-6.9H12.8a4.35 4.35 0 01-3.78 3.78z" clip-rule="evenodd"/>
    </symbol>

    <!-- Иконки кнопок -->
    <symbol id="icon-pause" viewBox="0 0 26 26">
        <path fill-rule="evenodd" d="M0 13a13 13 0 1126 0 13 13 0 01-26 0zm9.1-5.2a1.3 1.3 0 012.6 0v10.4a1.3 1.3 0 11-2.6 0V7.8zM13 23.4a10.4 10.4 0 110-20.8 10.4 10.4 0 010 20.8zm1.3-15.6a1.3 1.3 0 112.6 0v10.4a1.3 1.3 0 11-2.6 0V7.8z" clip-rule="evenodd"/>
    </symbol>
    <symbol id="icon-restart" viewBox="0 0 16 20">
        <path d="M8 4V0L3 5l5 5V6c3.3 0 6 2.7 6 6s-2.7 6-6 6-6-2.7-6-6H0c0 4.4 3.6 8 8 8s8-3.6 8-8-3.6-8-8-8z"/>
    </symbol>

    <symbol id="icon-arrow" viewBox="0 0 12 19">
        <path d="M9.73 0L12 2.22 4.54 9.5 12 16.78 9.73 19 0 9.5 9.73 0z"/>
    </symbol>

    <!-- Иконки клавиш -->
    <symbol id="icon-backspace" viewBox="0 0 21 11">
        <path fill="currentColor" d="M8.94.75a.5.5 0 01-.12.63l-.07.06L2.4 5H20a.5.5 0 01.09 1H2.4l6.35 3.56c.2.12.3.38.22.6l-.03.09a.5.5 0 01-.6.22l-.09-.03-8-4.5a.5.5 0 01-.07-.82l.07-.06 8-4.5a.5.5 0 01.69.2z"/>
    </symbol>
    <symbol id="icon-tab" viewBox="0 0 21 11">
        <path fill="currentColor" fill-rule="evenodd" d="M21 .5a.5.5 0 00-1 0v10a.5.5 0 001 0V.5zM9.75.56L9.66.53a.5.5 0 00-.6.22l-.03.09a.5.5 0 00.22.6L15.6 5H.91A.5.5 0 001 6h14.6L9.24 9.56l-.07.06a.5.5 0 00.57.82l8-4.5.07-.06a.5.5 0 00-.07-.82l-8-4.5z" clip-rule="evenodd"/>
    </symbol>
    <symbol id="icon-enter" viewBox="0 0 21 16">
        <path fill="currentColor" d="M18 .5a2.5 2.5 0 012.5 2.34V9a2.5 2.5 0 01-2.34 2.5H2.4l6.35 3.56c.2.12.3.38.22.6l-.03.09a.5.5 0 01-.6.22l-.09-.03-8-4.5a.5.5 0 01-.07-.82l.07-.06 8-4.5a.5.5 0 01.57.82l-.07.06L2.4 10.5H18c.78 0 1.42-.6 1.5-1.36V3c0-.78-.6-1.42-1.36-1.5h-2.56a.5.5 0 01-.1-1H18z"/>
    </symbol>
    <symbol id="icon-capslock" viewBox="0 0 16 22" fill="none">
        <path stroke="currentColor" d="M5.4 15h5.12a1 1 0 001-1v-3.27a1 1 0 011-1h1.24a.99.99 0 00.73-1.65L8.74 1.8a1 1 0 00-1.48 0L1.5 8.1a.97.97 0 00.7 1.63h1.2a1 1 0 011 1V14a1 1 0 001 1zM10 17H6a1 1 0 00-1 1v2a1 1 0 001 1h4a1 1 0 001-1v-2a1 1 0 00-1-1z" clip-rule="evenodd"/>
    </symbol>
    <symbol id="icon-shift" viewBox="0 0 16 16" fill="none">
        <path stroke="currentColor" d="M5.17 14.52h5.12a1 1 0 001-1v-3.27a1 1 0 011-1h1.24a.99.99 0 00.72-1.65L8.51 1.32a1 1 0 00-1.48 0l-5.78 6.3a.97.97 0 00.72 1.63h1.2a1 1 0 011 1v3.27a1 1 0 001 1z" clip-rule="evenodd"/>
    </symbol>
    <symbol id="icon-key-arrow" viewBox="0 0 6 7">
        <path fill="currentColor" fill-rule="evenodd" d="M0 .5v5.26a.5.5 0 00.75.43l4.51-2.63a.5.5 0 000-.86L.76.07A.5.5 0 000 .5z" clip-rule="evenodd"/>
    </symbol>

    <!-- Иконки радио-кнопок -->
    <symbol id="icon-windows" viewBox="0 0 44 44">
        <path d="M0 37.55L18.42 40V23H0v14.55zM0 21h18.42V4L0 6.42V21zM20.46 40.66L44 44V23H20.46v17.66zM20.46 21H44V0L20.46 3.3V21z"/>
    </symbol>
    <symbol id="icon-parrot" viewBox="0 0 39 45">
        <path fill-rule="evenodd" d="M37.32 36.13c-1.3-.54-1.86-1.26-1.8-2.33a3.59 3.59 0 00-.99-2.52c.2-.78.8-3.47 0-5.8-.84-2.5-3.43-6.31-6.1-10.06-1.09-1.54-1.14-3.22-1.2-5.15-.05-1.85-.12-3.95-1.14-6.28A6.41 6.41 0 0020 0c-1.65 0-3.34.52-4.64 1.43-2.67 1.86-2.31 5.92-2.08 8.6l.08 1.01c.15 2.63.01 4.01-.17 4.44-.12.27-.7 1.05-1.33 1.88-.65.86-1.38 1.83-1.97 2.74a21.55 21.55 0 00-1.85 4.36c-.41 1.18-.8 2.3-1.17 2.96a4.07 4.07 0 00-.39 3.03 3.1 3.1 0 00-.98 1.26c-.4.86-1.2 1.32-2.88 1.64-.76.16-1.3.49-1.57.97-.4.71-.19 1.6.01 2.2.3.9.12 1.46-.22 2.49v.01c-.08.23-.17.5-.25.79-.14.46-.1.89.15 1.26.63.98 2.47 1.32 4.37 1.55 1.13.13 2.37.6 3.57 1.03 1.18.44 2.4.89 3.5 1.02.17.03.33.04.5.04a2.9 2.9 0 002.65-1.58c.6-.13 2.67-.52 4.8-.58 2.13-.06 4.18.37 4.77.5.18.35.66 1.16 1.43 1.58.43.24 1.01.37 1.62.37.64 0 1.87-.15 2.84-1.19.96-1.03 3.38-2.36 5.15-3.32l1.08-.6c1-.56 1.54-1.35 1.49-2.18-.04-.7-.5-1.3-1.18-1.58zm-21.95-.2c-.12-.88-1.24-1.75-2.54-2.76-1.06-.83-2.26-1.76-2.59-2.55-.68-1.64-.14-4.51.8-6 .46-.74.84-1.86 1.2-2.95.4-1.17.81-2.38 1.27-2.92a7.5 7.5 0 001.51-3.71c.68.65 1.74 1.49 2.71 1.49.15 0 .3-.02.43-.06.67-.2 1.65-.77 2.6-1.32.81-.48 1.82-1.07 2.2-1.12.65.94 4.42 9.39 4.8 12.1.31 2.15 0 3.92-.17 4.62a3.32 3.32 0 00-.45-.03c-1.05 0-1.33.58-1.4.92-.19.9-.2 3.78-.21 4.43-.38.49-2.3 2.79-5.06 3.2-1.13.17-2.18.25-3.12.25-.81 0-1.33-.06-1.54-.1l-1.39-1.6a1.7 1.7 0 00.95-1.89zM17 9.53l.13-.07.03-.44c0-1.14-.6-2.1-1.3-2.1-.6 0-1.11.67-1.26 1.58.17-.42.47-.7.85-.77l.15-.01c.64 0 1.22.64 1.37 1.52.02.1.03.19.03.29zm5.63.61c.06-.2.1-.43.1-.66 0-1.04-.65-1.85-1.48-1.85-.81 0-1.47.83-1.47 1.85l.01.2-.13-.04c-.09-.29-.14-.59-.14-.9 0-1.23.79-2.24 1.75-2.24S23 7.51 23 8.75c0 .51-.14 1-.38 1.4zm-1.08 2.67c.33-.17.36-.2.37-.26-.04-.1-.34-.35-.93-.56-.18-.06-.44-.17-.75-.3a15.41 15.41 0 00-1.98-.7c-.3 0-.94.4-1.56 1-.31.27-.91.75-1.16.94.06.21.54.75 1.28 1.25l.3.2c.41.28.6.4.9.36.43-.06 2.04-1.04 2.73-1.47l.17-.1.63-.36zm5.61 27.24c.33-1.5.71-3.55.65-4.75a30.7 30.7 0 00-.06-.86c-.04-.54-.1-1.34-.04-1.58l.04-.01c0 .69.15 2.06 1.24 2.54.32.14.7.21 1.1.21 1.09 0 2.3-.54 2.79-1.04.29-.29.53-.65.7-.94.04.12.07.26.05.45-.06 1.01.43 2.36 1.36 2.86l.13.07c.33.18 1.21.64 1.23.86l-.06.08c-.22.2-1 .6-1.74.99-1.33.68-2.84 1.46-3.52 2.18-.95 1.01-2.03 1.7-2.68 1.7a.7.7 0 01-.21-.04c-.7-.22-1.29-1.25-.98-2.72zM3.08 36.22c.08.4.19.9.1 1.52-.07.38-.18.75-.3 1.1-.15.5-.33 1.06-.17 1.24.18.16 1.31.35 2.14.48 1.05.17 2.12.35 2.78.63l.17.07c1.18.5 3.38 1.44 4.49 1.44.1 0 .19 0 .26-.02.19-.13 1-.72 1.15-1.45.2-.93-.64-2.02-1.16-2.59-.58-.62-1.69-2.5-2.5-3.87l-.63-1.06c-.5-.78-1.37-1.66-1.78-1.66l-.07.01c-.21.13-.4.52-.58.89-.25.52-.53 1.1-1.05 1.42-.38.23-.96.36-1.53.49-.4.09-1.35.3-1.4.49-.05.26 0 .53.08.87z" clip-rule="evenodd"/>
    </symbol>
    <symbol id="icon-apple" viewBox="0 0 38 45">
        <path d="M1.96 15.99C-1.97 22.72.53 32.93 4.88 39.12 7.05 42.22 9.24 45 12.25 45h.17c1.42-.06 2.44-.49 3.43-.9a9.48 9.48 0 014.05-.95c1.71 0 2.8.46 3.86.92 1.04.44 2.11.9 3.7.87 3.39-.06 5.47-3.06 7.3-5.7a25.14 25.14 0 003.2-6.48l.02-.04a.37.37 0 00-.2-.46l-.03-.01c-.6-.24-5.83-2.53-5.89-8.78-.05-5.07 3.93-7.76 4.73-8.25l.04-.02a.38.38 0 00.1-.53c-2.74-3.96-6.95-4.56-8.65-4.63-.24-.03-.5-.04-.75-.04-2 0-3.9.74-5.43 1.34a8.82 8.82 0 01-2.6.76c-.7 0-1.63-.36-2.7-.77-1.41-.56-3.03-1.19-4.73-1.19h-.12c-3.97.06-7.72 2.3-9.79 5.85z"/><path d="M28.3 0c-2.46.1-5.4 1.53-7.17 3.5-1.5 1.64-2.97 4.4-2.58 7.16.02.17.17.3.36.32l.5.02c2.4 0 5-1.26 6.77-3.3A9.85 9.85 0 0028.71.33a.39.39 0 00-.4-.33z"/>
    </symbol>
    <symbol id="icon-enter-long" viewBox="0 0 65 74" fill="none">
        <rect width="63" height="33" x="1" y="40" stroke="currentColor" stroke-width="2" opacity=".8" rx="6"/><rect width="21" height="33" x="1" y="1" stroke="currentColor" stroke-width="2" opacity=".2" rx="6"/><rect width="34" height="33" x="30" y="1" stroke="currentColor" stroke-width="2" opacity=".2" rx="6"/><path fill="currentColor" d="M54.17 54c.97 0 1.76.8 1.83 1.8V60.59a1.9 1.9 0 01-1.7 1.93H42.76l4.63 2.77c.16.09.22.29.17.46l-.03.06a.36.36 0 01-.44.18l-.06-.03-5.85-3.48a.4.4 0 01-.06-.64l.06-.04 5.85-3.48c.18-.1.4-.04.5.15a.4.4 0 01-.09.48l-.05.04-4.64 2.76h11.41c.57 0 1.04-.46 1.1-1.05v-4.75c0-.6-.44-1.1-1-1.16H52.4a.38.38 0 01-.37-.4c0-.18.13-.34.3-.37l.07-.01h1.77z"/>
    </symbol>
    <symbol id="icon-enter-tall" viewBox="0 0 67 73" fill="none">
        <path stroke="currentColor" stroke-width="2" d="M32 7a6 6 0 016-6h22a6 6 0 016 6v58a6 6 0 01-6 6H47.95a6 6 0 01-6-6V38.08a4.98 4.98 0 00-4.97-4.97v0A4.98 4.98 0 0132 28.13V7z" clip-rule="evenodd" opacity=".8"/><rect width="34" height="33" x="1" y="39" stroke="currentColor" stroke-width="2" opacity=".2" rx="6"/><rect width="24" height="33" x="1" y="1" stroke="currentColor" stroke-width="2" opacity=".2" rx="6"/><path fill="currentColor" d="M58.17 18c.97 0 1.76.8 1.83 1.8V24.59a1.9 1.9 0 01-1.7 1.93H46.76l4.63 2.77c.16.09.22.29.17.46l-.03.06a.36.36 0 01-.44.18l-.06-.03-5.85-3.48a.4.4 0 01-.06-.64l.06-.04 5.85-3.48c.18-.1.4-.04.5.15a.4.4 0 01-.09.48l-.05.04-4.64 2.76h11.41c.57 0 1.04-.46 1.1-1.05v-4.75c0-.6-.44-1.1-1-1.16H56.4a.38.38 0 01-.37-.4c0-.18.13-.34.3-.37l.07-.01h1.77z"/>
    </symbol>
</svg>